<svg width="18" height="18" viewBox="0 0 18 18" fill="none" xmlns="http://www.w3.org/2000/svg">
<g clip-path="url(#clip0_2453_979)">
<path d="M9.8332 17.55C11.6367 15.293 15.75 9.82266 15.75 6.75C15.75 3.02344 12.7266 0 9 0C5.27344 0 2.25 3.02344 2.25 6.75C2.25 9.82266 6.36328 15.293 8.1668 17.55C8.59922 18.0879 9.40078 18.0879 9.8332 17.55ZM9 4.5C9.59674 4.5 10.169 4.73705 10.591 5.15901C11.0129 5.58097 11.25 6.15326 11.25 6.75C11.25 7.34674 11.0129 7.91903 10.591 8.34099C10.169 8.76295 9.59674 9 9 9C8.40326 9 7.83097 8.76295 7.40901 8.34099C6.98705 7.91903 6.75 7.34674 6.75 6.75C6.75 6.15326 6.98705 5.58097 7.40901 5.15901C7.83097 4.73705 8.40326 4.5 9 4.5Z" fill="#424345"/>
</g>
<defs>
<clipPath id="clip0_2453_979">
<rect width="18" height="18" fill="white"/>
</clipPath>
</defs>
</svg>
