<svg width="24" height="24" viewBox="0 0 24 24" fill="none" xmlns="http://www.w3.org/2000/svg">
<path d="M22.5 16.125V21.375C22.5004 21.5228 22.4715 21.6693 22.4151 21.806C22.3587 21.9426 22.2759 22.0668 22.1713 22.1713C22.0668 22.2759 21.9426 22.3587 21.806 22.4151C21.6693 22.4715 21.5228 22.5004 21.375 22.5H16.125C15.1223 22.5 14.6208 21.2859 15.3281 20.5781L17.025 18.8813L12 13.8563L6.9736 18.8859L8.67188 20.5781C9.37922 21.2859 8.87766 22.5 7.875 22.5H2.625C2.47716 22.5004 2.3307 22.4715 2.19405 22.4151C2.05739 22.3587 1.93322 22.2759 1.82868 22.1713C1.72414 22.0668 1.64129 21.9426 1.58488 21.806C1.52848 21.6693 1.49963 21.5228 1.5 21.375V16.125C1.5 15.1219 2.7136 14.6203 3.42188 15.3281L5.11828 17.025L10.1466 12L5.11782 6.97032L3.42188 8.67188C2.71407 9.37969 1.5 8.87813 1.5 7.875V2.625C1.49963 2.47716 1.52848 2.3307 1.58488 2.19405C1.64129 2.05739 1.72414 1.93322 1.82868 1.82868C1.93322 1.72414 2.05739 1.64129 2.19405 1.58488C2.3307 1.52848 2.47716 1.49963 2.625 1.5H7.875C8.87766 1.5 9.37922 2.71407 8.67188 3.42188L6.975 5.11875L12 10.1438L17.0264 5.11407L15.3281 3.42188C14.6208 2.71407 15.1223 1.5 16.125 1.5H21.375C21.5228 1.49963 21.6693 1.52848 21.806 1.58488C21.9426 1.64129 22.0668 1.72414 22.1713 1.82868C22.2759 1.93322 22.3587 2.05739 22.4151 2.19405C22.4715 2.3307 22.5004 2.47716 22.5 2.625V7.875C22.5 8.87813 21.2864 9.37969 20.5781 8.67188L18.8817 6.975L13.8534 12L18.8822 17.0297L20.5781 15.3328C21.2859 14.6203 22.5 15.1219 22.5 16.125Z" fill="#424345"/>
</svg>
