<svg width="20" height="20" viewBox="0 0 20 20" fill="none" xmlns="http://www.w3.org/2000/svg">
<path d="M9.99976 8.18182V12.0546H15.3816C15.1452 13.3 14.4361 14.3546 13.3724 15.0637L16.6179 17.5819C18.5088 15.8365 19.5997 13.2728 19.5997 10.2274C19.5997 9.5183 19.5361 8.83642 19.4179 8.18193L9.99976 8.18182Z" fill="#0A0C10"/>
<path d="M4.39567 11.9034L3.66371 12.4637L1.07275 14.4818C2.7182 17.7454 6.09068 20 9.99974 20C12.6997 20 14.9633 19.1091 16.6179 17.5819L13.3724 15.0637C12.4815 15.6637 11.3451 16.0273 9.99974 16.0273C7.39976 16.0273 5.19073 14.2728 4.39976 11.9092L4.39567 11.9034Z" fill="#0A0C10"/>
<path d="M1.07265 5.51819C0.390868 6.86359 0 8.38179 0 9.99994C0 11.6181 0.390868 13.1363 1.07265 14.4817C1.07265 14.4907 4.39998 11.8999 4.39998 11.8999C4.19998 11.2999 4.08177 10.6636 4.08177 9.99984C4.08177 9.33612 4.19998 8.69979 4.39998 8.0998L1.07265 5.51819Z" fill="#0A0C10"/>
<path d="M9.99995 3.98182C11.4727 3.98182 12.7818 4.49089 13.8272 5.47272L16.6908 2.60912C14.9545 0.990971 12.7 0 9.99995 0C6.09089 0 2.7182 2.24545 1.07275 5.51819L4.39998 8.10001C5.19084 5.73635 7.39996 3.98182 9.99995 3.98182Z" fill="#0A0C10"/>
</svg>
