<svg width="21" height="22" viewBox="0 0 21 22" fill="none" xmlns="http://www.w3.org/2000/svg">
<g clip-path="url(#clip0_2282_94)">
<path d="M17.8178 4.22278C16.4962 3.61635 15.0789 3.16957 13.5971 2.91367C13.5701 2.90873 13.5431 2.92107 13.5292 2.94576C13.347 3.26994 13.1451 3.69287 13.0037 4.02529C11.4099 3.78668 9.82423 3.78668 8.26311 4.02529C8.12169 3.68548 7.91246 3.26994 7.72937 2.94576C7.71547 2.9219 7.68851 2.90956 7.66153 2.91367C6.18051 3.16875 4.76325 3.61554 3.44079 4.22278C3.42934 4.22771 3.41953 4.23595 3.41301 4.24664C0.724766 8.26282 -0.011657 12.1803 0.349608 16.0492C0.351242 16.0681 0.361868 16.0862 0.37658 16.0977C2.15021 17.4002 3.86827 18.191 5.55443 18.7151C5.58142 18.7233 5.61001 18.7135 5.62718 18.6913C6.02604 18.1466 6.38159 17.5722 6.68644 16.9683C6.70443 16.9329 6.68726 16.8909 6.65049 16.8769C6.08653 16.663 5.54952 16.4022 5.03296 16.106C4.9921 16.0821 4.98883 16.0237 5.02642 15.9957C5.13512 15.9142 5.24386 15.8295 5.34765 15.7439C5.36643 15.7283 5.3926 15.725 5.41468 15.7349C8.80826 17.2842 12.4822 17.2842 15.8357 15.7349C15.8578 15.7242 15.884 15.7275 15.9036 15.7431C16.0074 15.8287 16.1161 15.9142 16.2256 15.9957C16.2632 16.0237 16.2608 16.0821 16.2199 16.106C15.7034 16.4079 15.1664 16.663 14.6016 16.8761C14.5648 16.8901 14.5485 16.9329 14.5664 16.9683C14.8778 17.5714 15.2334 18.1457 15.6249 18.6904C15.6412 18.7135 15.6706 18.7233 15.6976 18.7151C17.392 18.191 19.11 17.4002 20.8836 16.0977C20.8992 16.0862 20.909 16.0689 20.9106 16.05C21.343 11.5771 20.1865 7.69179 17.8448 4.24746C17.8391 4.23595 17.8293 4.22771 17.8178 4.22278ZM7.19322 13.6934C6.17152 13.6934 5.32966 12.7554 5.32966 11.6035C5.32966 10.4515 6.15519 9.51353 7.19322 9.51353C8.23939 9.51353 9.0731 10.4598 9.05674 11.6035C9.05674 12.7554 8.23121 13.6934 7.19322 13.6934ZM14.0834 13.6934C13.0617 13.6934 12.2199 12.7554 12.2199 11.6035C12.2199 10.4515 13.0454 9.51353 14.0834 9.51353C15.1296 9.51353 15.9633 10.4598 15.9469 11.6035C15.9469 12.7554 15.1296 13.6934 14.0834 13.6934Z" fill="#0A0C10"/>
</g>
<defs>
<clipPath id="clip0_2282_94">
<rect width="20.736" height="20.736" fill="white" transform="translate(0.263916 0.631836)"/>
</clipPath>
</defs>
</svg>
