<svg width="22" height="22" viewBox="0 0 22 22" fill="none" xmlns="http://www.w3.org/2000/svg">
<g clip-path="url(#clip0_2282_89)">
<path d="M10.8961 2.49889C13.6663 2.49889 13.9943 2.51104 15.0838 2.55964C16.0963 2.60419 16.643 2.77429 17.0075 2.91604C17.4895 3.10234 17.8378 3.32914 18.1982 3.68959C18.5627 4.05409 18.7855 4.39834 18.9718 4.88029C19.1135 5.24479 19.2836 5.79559 19.3282 6.80404C19.3768 7.89754 19.3889 8.22559 19.3889 10.9917C19.3889 13.7619 19.3768 14.09 19.3282 15.1794C19.2836 16.1919 19.1135 16.7387 18.9718 17.1032C18.7855 17.5851 18.5587 17.9334 18.1982 18.2939C17.8337 18.6584 17.4895 18.8811 17.0075 19.0674C16.643 19.2092 16.0922 19.3793 15.0838 19.4238C13.9903 19.4724 13.6622 19.4846 10.8961 19.4846C8.12588 19.4846 7.79783 19.4724 6.70838 19.4238C5.69588 19.3793 5.14913 19.2092 4.78463 19.0674C4.30268 18.8811 3.95438 18.6543 3.59393 18.2939C3.22943 17.9294 3.00668 17.5851 2.82038 17.1032C2.67863 16.7387 2.50853 16.1879 2.46398 15.1794C2.41538 14.0859 2.40323 13.7579 2.40323 10.9917C2.40323 8.22154 2.41538 7.89349 2.46398 6.80404C2.50853 5.79154 2.67863 5.24479 2.82038 4.88029C3.00668 4.39834 3.23348 4.05004 3.59393 3.68959C3.95843 3.32509 4.30268 3.10234 4.78463 2.91604C5.14913 2.77429 5.69993 2.60419 6.70838 2.55964C7.79783 2.51104 8.12588 2.49889 10.8961 2.49889ZM10.8961 0.631836C8.08133 0.631836 7.72898 0.643986 6.62333 0.692586C5.52173 0.741186 4.76438 0.919386 4.10828 1.17454C3.42383 1.44184 2.84468 1.79419 2.26958 2.37334C1.69043 2.94844 1.33808 3.52759 1.07078 4.20799C0.815626 4.86814 0.637426 5.62144 0.588826 6.72304C0.540226 7.83274 0.528076 8.18509 0.528076 10.9998C0.528076 13.8146 0.540226 14.1669 0.588826 15.2726C0.637426 16.3742 0.815626 17.1315 1.07078 17.7876C1.33808 18.4721 1.69043 19.0512 2.26958 19.6263C2.84468 20.2014 3.42383 20.5578 4.10423 20.8211C4.76438 21.0762 5.51768 21.2544 6.61928 21.303C7.72493 21.3516 8.07728 21.3638 10.892 21.3638C13.7068 21.3638 14.0591 21.3516 15.1648 21.303C16.2664 21.2544 17.0237 21.0762 17.6798 20.8211C18.3602 20.5578 18.9394 20.2014 19.5145 19.6263C20.0896 19.0512 20.446 18.4721 20.7092 17.7917C20.9644 17.1315 21.1426 16.3782 21.1912 15.2766C21.2398 14.171 21.2519 13.8186 21.2519 11.0039C21.2519 8.18914 21.2398 7.83679 21.1912 6.73114C21.1426 5.62954 20.9644 4.87219 20.7092 4.21609C20.4541 3.52759 20.1017 2.94844 19.5226 2.37334C18.9475 1.79824 18.3683 1.44184 17.6879 1.17859C17.0278 0.923436 16.2745 0.745236 15.1729 0.696636C14.0632 0.643986 13.7108 0.631836 10.8961 0.631836Z" fill="#0A0C10"/>
<path d="M10.8961 5.67432C7.95576 5.67432 5.57031 8.05977 5.57031 11.0001C5.57031 13.9404 7.95576 16.3258 10.8961 16.3258C13.8364 16.3258 16.2218 13.9404 16.2218 11.0001C16.2218 8.05977 13.8364 5.67432 10.8961 5.67432ZM10.8961 14.4547C8.98851 14.4547 7.44141 12.9076 7.44141 11.0001C7.44141 9.09252 8.98851 7.54542 10.8961 7.54542C12.8036 7.54542 14.3507 9.09252 14.3507 11.0001C14.3507 12.9076 12.8036 14.4547 10.8961 14.4547Z" fill="#0A0C10"/>
<path d="M17.6757 5.46357C17.6757 6.15207 17.1168 6.70692 16.4323 6.70692C15.7438 6.70692 15.189 6.14802 15.189 5.46357C15.189 4.77507 15.7479 4.22021 16.4323 4.22021C17.1168 4.22021 17.6757 4.77912 17.6757 5.46357Z" fill="#0A0C10"/>
</g>
<defs>
<clipPath id="clip0_2282_89">
<rect width="20.736" height="20.736" fill="white" transform="translate(0.528076 0.631836)"/>
</clipPath>
</defs>
</svg>
