<svg width="22" height="22" viewBox="0 0 22 22" fill="none" xmlns="http://www.w3.org/2000/svg">
<g clip-path="url(#clip0_2282_82)">
<path d="M11.1597 9.11475V13.13H16.7395C16.4945 14.4213 15.7592 15.5147 14.6565 16.2498L18.0213 18.8607C19.9818 17.0511 21.1129 14.3931 21.1129 11.2356C21.1129 10.5004 21.0469 9.79343 20.9244 9.11486L11.1597 9.11475Z" fill="#0A0C10"/>
<path d="M5.34926 12.9736L4.59035 13.5546L1.90405 15.647C3.61006 19.0307 7.10664 21.3682 11.1596 21.3682C13.9588 21.3682 16.3057 20.4445 18.0212 18.8611L14.6564 16.2502C13.7327 16.8723 12.5545 17.2494 11.1596 17.2494C8.46389 17.2494 6.17357 15.4303 5.3535 12.9796L5.34926 12.9736Z" fill="#0A0C10"/>
<path d="M1.90411 6.35303C1.19724 7.74794 0.791992 9.32201 0.791992 10.9997C0.791992 12.6774 1.19724 14.2515 1.90411 15.6464C1.90411 15.6558 5.35389 12.9696 5.35389 12.9696C5.14653 12.3475 5.02397 11.6878 5.02397 10.9996C5.02397 10.3115 5.14653 9.65172 5.35389 9.02964L1.90411 6.35303Z" fill="#0A0C10"/>
<path d="M11.1598 4.76018C12.6867 4.76018 14.044 5.28799 15.1279 6.30596L18.0969 3.33698C16.2966 1.65927 13.9592 0.631836 11.1598 0.631836C7.10685 0.631836 3.61006 2.95992 1.90405 6.35309L5.35372 9.02993C6.17369 6.57928 8.4641 4.76018 11.1598 4.76018Z" fill="#0A0C10"/>
</g>
<defs>
<clipPath id="clip0_2282_82">
<rect width="20.736" height="20.736" fill="white" transform="translate(0.791992 0.631836)"/>
</clipPath>
</defs>
</svg>
