<svg width="24" height="24" viewBox="0 0 24 24" fill="none" xmlns="http://www.w3.org/2000/svg">
<path d="M23.8091 8.20785C17.1652 2.06273 6.83209 2.06498 0.190843 8.20785C-0.0589069 8.43885 -0.0637819 8.82998 0.177718 9.0696L1.46172 10.3435C1.69197 10.5722 2.06247 10.5771 2.30172 10.3577C7.77372 5.34473 16.2255 5.3436 21.6986 10.3577C21.9378 10.5771 22.3083 10.5719 22.5386 10.3435L23.8226 9.0696C24.0637 8.82998 24.0588 8.43885 23.8091 8.20785ZM12 15.5999C10.6743 15.5999 9.59997 16.6742 9.59997 17.9999C9.59997 19.3255 10.6743 20.3999 12 20.3999C13.3256 20.3999 14.4 19.3255 14.4 17.9999C14.4 16.6742 13.3256 15.5999 12 15.5999ZM19.6001 12.4652C15.2778 8.64285 8.71722 8.64698 4.39984 12.4652C4.14109 12.694 4.13284 13.0911 4.37847 13.3334L5.66997 14.608C5.89497 14.83 6.25722 14.845 6.49684 14.638C9.64497 11.9166 14.3621 11.9226 17.5027 14.638C17.7423 14.845 18.1046 14.8304 18.3296 14.608L19.6211 13.3334C19.8671 13.0911 19.8585 12.6936 19.6001 12.4652Z" fill="#424345"/>
</svg>
